<svg width="22" height="107" viewBox="0 0 22 107" fill="none" xmlns="http://www.w3.org/2000/svg">
<path d="M4.58311 -1.16444e-05L3.77107 -1.16089e-05C3.71396 -1.16064e-05 3.66756 0.0483549 3.66756 0.107878L3.66756 0.846329C3.66756 0.905851 3.62116 0.954218 3.56405 0.954218L2.85552 0.954218C2.79841 0.954218 2.75201 1.00257 2.75201 1.0621L2.75201 1.80056C2.75201 1.86008 2.7056 1.90845 2.64849 1.90845L1.93997 1.90845C1.88286 1.90845 1.83646 1.9568 1.83646 2.01632L1.83646 2.75479C1.83646 2.81431 1.79005 2.86267 1.73294 2.86267L1.02442 2.86267C0.967307 2.86267 0.920904 2.91103 0.920904 2.97055L0.920904 3.70901C0.920904 3.76854 0.874502 3.8169 0.817392 3.8169L0.103512 3.8169C0.0464012 3.8169 -9.99836e-07 3.86526 -9.97234e-07 3.92478L-2.96853e-07 19.9476C-2.94251e-07 20.0072 0.0464019 20.0555 0.103512 20.0555L0.812038 20.0555C0.869149 20.0555 0.915551 20.1039 0.915551 20.1634L0.915551 20.9019C0.915551 20.9614 0.961953 21.0097 1.01906 21.0097L1.72759 21.0097C1.7847 21.0097 1.8311 21.0581 1.8311 21.1176L1.8311 21.8561C1.8311 21.9156 1.8775 21.964 1.93462 21.964L2.64314 21.964C2.70025 21.964 2.74665 22.0123 2.74665 22.0719L2.74665 22.8103C2.74665 22.8698 2.70025 22.9182 2.64314 22.9182L0.103512 22.9182C0.046402 22.9182 -1.64891e-07 22.9666 -1.62289e-07 23.0261L-4.71596e-09 26.6309C-2.11413e-09 26.6905 0.0464022 26.7388 0.103513 26.7388L21.8947 26.7388C21.9518 26.7388 21.9982 26.6905 21.9982 26.6309L21.9982 23.0261C21.9982 22.9666 21.9518 22.9182 21.8947 22.9182L13.8528 22.9182C13.7957 22.9182 13.7493 22.8698 13.7493 22.8103L13.7493 22.0719C13.7493 22.0123 13.7029 21.964 13.6458 21.964L12.9373 21.964C12.8802 21.964 12.8338 21.9156 12.8338 21.8561L12.8338 4.87715C12.8338 4.81762 12.8802 4.76927 12.9373 4.76927L13.6458 4.76927C13.7029 4.76927 13.7493 4.7209 13.7493 4.66138L13.7493 3.92292C13.7493 3.8634 13.7957 3.81504 13.8528 3.81504L21.8947 3.81504C21.9518 3.81504 21.9982 3.76667 21.9982 3.70715L21.9982 0.10229C21.9982 0.0427675 21.9518 -0.00559712 21.8947 -0.00559712L15.6875 -0.00559685C15.6304 -0.00559684 15.584 0.0427678 15.584 0.10229L15.584 0.840755C15.584 0.900277 15.5376 0.948631 15.4805 0.948631L14.772 0.948631C14.7149 0.948631 14.6685 0.996997 14.6685 1.05652L14.6685 1.79497C14.6685 1.8545 14.6221 1.90286 14.5649 1.90286L13.8564 1.90286C13.7993 1.90286 13.7529 1.95123 13.7529 2.01075L13.7529 2.7492C13.7529 2.80872 13.7065 2.85709 13.6494 2.85709L11.108 2.85709C11.0509 2.85709 11.0045 2.80872 11.0045 2.7492L11.0045 2.01075C11.0045 1.95123 10.9581 1.90286 10.9009 1.90286L10.1924 1.90286C10.1353 1.90286 10.0889 1.8545 10.0889 1.79497L10.0889 1.05652C10.0889 0.996997 10.0425 0.948631 9.9854 0.948631L9.27687 0.948631C9.21976 0.948631 9.17336 0.900278 9.17336 0.840755L9.17336 0.102291C9.17336 0.0427681 9.12696 -0.00559656 9.06985 -0.00559656L4.59025 -0.00559636L4.58311 -1.16444e-05ZM5.50045 3.82248L8.14537 3.82248C8.20248 3.82248 8.24889 3.87084 8.24889 3.93037L8.24889 4.66882C8.24889 4.72834 8.29529 4.77671 8.3524 4.77671L9.06092 4.77671C9.11803 4.77671 9.16444 4.82507 9.16444 4.8846L9.16444 18.0429C9.16444 18.1024 9.21084 18.1508 9.26795 18.1508L9.97648 18.1508C10.0336 18.1508 10.08 18.1991 10.08 18.2587L10.08 18.9971C10.08 19.0566 10.1264 19.105 10.1835 19.105L10.892 19.105C10.9491 19.105 10.9955 19.1534 10.9955 19.2129L10.9955 19.9513C10.9955 20.0109 11.0419 20.0592 11.0991 20.0592L11.8076 20.0592C11.8647 20.0592 11.9111 20.1076 11.9111 20.1671L11.9111 21.0135L11.9111 21.9695L11.9111 22.8159C11.9111 22.8754 11.8647 22.9238 11.8076 22.9238L4.68662 22.9238C4.62951 22.9238 4.58311 22.8754 4.58311 22.8159L4.58311 22.0774C4.58311 22.0179 4.53671 21.9695 4.4796 21.9695L3.77107 21.9695C3.71396 21.9695 3.66756 21.9212 3.66756 21.8617L3.66756 4.88273C3.66756 4.82321 3.71396 4.77484 3.77107 4.77484L4.4796 4.77484C4.53671 4.77484 4.58311 4.72648 4.58311 4.66696L4.58311 3.9285C4.58311 3.86898 4.62951 3.82062 4.68662 3.82062L5.49866 3.82062L5.50045 3.82248Z" fill="white"/>
<path d="M18.3324 84.0706L18.3324 102.115C18.3324 102.175 18.286 102.223 18.2289 102.223L17.5204 102.223C17.4633 102.223 17.4169 102.272 17.4169 102.331L17.4169 103.07C17.4169 103.129 17.3705 103.178 17.3134 103.178L0.103512 103.178C0.046402 103.178 -1.64972e-07 103.226 -1.62371e-07 103.285L-4.71582e-09 106.892C-2.11399e-09 106.952 0.0464022 107 0.103513 107L21.8947 107C21.9518 107 21.9982 106.952 21.9982 106.892L21.9982 103.287C21.9982 103.228 21.9518 103.179 21.8947 103.179L19.3533 103.179C19.2962 103.179 19.2498 103.131 19.2498 103.071L19.2498 99.4666C19.2498 99.4071 19.2962 99.3587 19.3533 99.3587L20.0618 99.3587C20.1189 99.3587 20.1653 99.3104 20.1653 99.2509L20.1653 98.5124C20.1653 98.4529 20.2117 98.4045 20.2688 98.4045L20.9774 98.4045C21.0345 98.4045 21.0809 98.3561 21.0809 98.2966L21.0809 97.5582C21.0809 97.4986 21.1273 97.4503 21.1844 97.4503L21.8929 97.4503C21.95 97.4503 21.9964 97.4019 21.9964 97.3424L21.9964 82.2738C21.9964 82.2143 21.95 82.1659 21.8929 82.1659L18.4342 82.1659C18.3771 82.1659 18.3307 82.2143 18.3307 82.2738L18.3307 84.0762L18.3324 84.0706Z" fill="white"/>
<path d="M6.31245 56.3664L5.60393 56.3664C5.54682 56.3664 5.50041 56.4148 5.50041 56.4743L5.50041 57.2127C5.50041 57.2723 5.45401 57.3206 5.3969 57.3206L4.68837 57.3206C4.63126 57.3206 4.58486 57.369 4.58486 57.4285L4.58486 58.167C4.58486 58.2265 4.53846 58.2749 4.48135 58.2749L3.77282 58.2749C3.71571 58.2749 3.66931 58.3232 3.66931 58.3827L3.66931 74.4056C3.66931 74.4651 3.71571 74.5135 3.77282 74.5135L4.48135 74.5135C4.53846 74.5135 4.58486 74.5618 4.58486 74.6214L4.58486 75.3598C4.58486 75.4193 4.63127 75.4677 4.68838 75.4677L5.3969 75.4677C5.45401 75.4677 5.50041 75.5161 5.50041 75.5756L5.50041 76.314C5.50041 76.3736 5.54682 76.4219 5.60393 76.4219L6.31245 76.4219C6.36956 76.4219 6.41597 76.4703 6.41597 76.5298L6.41597 80.1347C6.41597 80.1942 6.46237 80.2426 6.51948 80.2426L19.1445 80.2426C19.2016 80.2426 19.248 80.1942 19.248 80.1347L19.248 79.3962C19.248 79.3367 19.2944 79.2883 19.3515 79.2883L20.06 79.2883C20.1171 79.2883 20.1635 79.24 20.1635 79.1804L20.1635 78.442C20.1635 78.3825 20.2099 78.3341 20.267 78.3341L20.9756 78.3341C21.0327 78.3341 21.0791 78.2857 21.0791 78.2262L21.0791 77.4878C21.0791 77.4282 21.1255 77.3799 21.1826 77.3799L21.8911 77.3799C21.9482 77.3799 21.9946 77.3315 21.9946 77.272L21.9946 58.3827C21.9946 58.3232 21.9482 58.2749 21.8911 58.2749L21.1826 58.2749C21.1255 58.2749 21.0791 58.2265 21.0791 58.167L21.0791 57.4285C21.0791 57.369 21.0327 57.3206 20.9756 57.3206L20.267 57.3206C20.2099 57.3206 20.1635 57.2723 20.1635 57.2127L20.1635 56.4743C20.1635 56.4148 20.1171 56.3664 20.06 56.3664L19.3515 56.3664C19.2944 56.3664 19.248 56.318 19.248 56.2585L19.248 55.5201C19.248 55.4605 19.2016 55.4122 19.1444 55.4122L18.4359 55.4122C18.3788 55.4122 18.3324 55.4605 18.3324 55.5201L18.3324 76.3215C18.3324 76.381 18.286 76.4294 18.2289 76.4294L15.6875 76.4294C15.6304 76.4294 15.584 76.381 15.584 76.3215L15.584 75.583C15.584 75.5235 15.5376 75.4751 15.4805 75.4751L14.7719 75.4751C14.7148 75.4751 14.6684 75.4268 14.6684 75.3673L14.6684 55.5219C14.6684 55.4624 14.622 55.414 14.5649 55.414L6.52305 55.414C6.46594 55.414 6.41953 55.4624 6.41953 55.5219L6.41953 56.2604C6.41953 56.3199 6.37313 56.3683 6.31602 56.3683L6.31245 56.3664ZM9.16619 59.2328L9.97823 59.2328C10.0353 59.2328 10.0817 59.2812 10.0817 59.3407L10.0817 60.0791C10.0817 60.1387 10.1281 60.187 10.1853 60.187L10.8938 60.187C10.9509 60.187 10.9973 60.2354 10.9973 60.2949L10.9973 70.5868C10.9973 70.6463 11.0437 70.6947 11.1008 70.6947L11.8093 70.6947C11.8664 70.6947 11.9128 70.7431 11.9128 70.8026L11.9128 71.541C11.9128 71.6006 11.9592 71.6489 12.0164 71.6489L12.7249 71.6489C12.782 71.6489 12.8284 71.6973 12.8284 71.7568L12.8284 72.4953C12.8284 72.5548 12.8748 72.6032 12.9319 72.6032L13.6404 72.6032C13.6975 72.6032 13.7439 72.6515 13.7439 72.711L13.7439 76.3159C13.7439 76.3754 13.6975 76.4238 13.6404 76.4238L8.3488 76.4238C8.29169 76.4238 8.24528 76.3754 8.24528 76.3159L8.24528 75.5774C8.24528 75.5179 8.19888 75.4696 8.14177 75.4696L7.43325 75.4696C7.37613 75.4696 7.32973 75.4212 7.32973 75.3617L7.32973 60.2931C7.32973 60.2335 7.37613 60.1852 7.43324 60.1852L8.14177 60.1852C8.19888 60.1852 8.24528 60.1368 8.24528 60.0773L8.24528 59.3388C8.24528 59.2793 8.29169 59.2309 8.3488 59.2309L9.16083 59.2309L9.16619 59.2328Z" fill="white"/>
<path d="M3.66577 30.5725L3.66577 32.3749C3.66577 32.4344 3.71217 32.4828 3.76928 32.4828L17.3098 32.4828C17.3669 32.4828 17.4133 32.5312 17.4133 32.5907L17.4133 33.3291C17.4133 33.3887 17.4597 33.437 17.5168 33.437L18.2254 33.437C18.2825 33.437 18.3289 33.4854 18.3289 33.5449L18.3289 49.5678C18.3289 49.6273 18.2825 49.6756 18.2254 49.6756L3.77107 49.6756C3.71396 49.6756 3.66756 49.724 3.66756 49.7835L3.66756 53.3884C3.66756 53.4479 3.71396 53.4963 3.77107 53.4963L19.1463 53.4963C19.2034 53.4963 19.2498 53.4479 19.2498 53.3884L19.2498 52.6499C19.2498 52.5904 19.2962 52.5421 19.3533 52.5421L20.0618 52.5421C20.1189 52.5421 20.1653 52.4937 20.1653 52.4342L20.1653 51.6957C20.1653 51.6362 20.2117 51.5878 20.2688 51.5878L20.9774 51.5878C21.0345 51.5878 21.0809 51.5395 21.0809 51.4799L21.0809 50.7415C21.0809 50.682 21.1273 50.6336 21.1844 50.6336L21.8929 50.6336C21.95 50.6336 21.9964 50.5852 21.9964 50.5257L21.9964 37.3674C21.9964 37.3079 21.95 37.2595 21.8929 37.2595L21.1844 37.2595C21.1273 37.2595 21.0809 37.2112 21.0809 37.1516L21.0809 36.4132C21.0809 36.3537 21.0345 36.3053 20.9774 36.3053L20.2688 36.3053C20.2117 36.3053 20.1653 36.2569 20.1653 36.1974L20.1653 35.459C20.1653 35.3994 20.1189 35.3511 20.0618 35.3511L19.3533 35.3511C19.2962 35.3511 19.2498 35.3027 19.2498 35.2432L19.2498 32.5944C19.2498 32.5349 19.2962 32.4865 19.3533 32.4865L21.8947 32.4865C21.9518 32.4865 21.9982 32.4382 21.9982 32.3786L21.9982 28.7738C21.9982 28.7143 21.9518 28.6659 21.8947 28.6659L3.77107 28.6659C3.71396 28.6659 3.66755 28.7143 3.66755 28.7738L3.66755 30.5762L3.66577 30.5725Z" fill="white"/>
</svg>
